<?xml version="1.0" standalone="no"?>
<!DOCTYPE svg PUBLIC "-//W3C//DTD SVG 20010904//EN"
 "http://www.w3.org/TR/2001/REC-SVG-20010904/DTD/svg10.dtd">
<svg version="1.0" xmlns="http://www.w3.org/2000/svg"
 width="512.000000pt" height="512.000000pt" viewBox="0 0 512.000000 512.000000"
 preserveAspectRatio="xMidYMid meet">

<g transform="translate(0.000000,512.000000) scale(0.100000,-0.100000)"
fill="#000000" stroke="none">
<path d="M2257 4995 c-480 -60 -897 -231 -1282 -524 -118 -89 -335 -302 -425
-416 -281 -355 -462 -775 -527 -1220 -21 -146 -24 -494 -5 -635 53 -395 184
-750 393 -1064 113 -170 175 -246 312 -385 268 -272 569 -467 927 -603 88 -33
114 -39 159 -36 46 4 59 10 83 37 l28 31 0 241 c0 209 -2 240 -15 235 -41 -15
-200 -28 -290 -23 -125 8 -198 28 -297 79 -120 62 -188 141 -276 319 -83 171
-148 253 -251 323 -121 82 -141 129 -66 155 32 10 54 11 108 2 134 -22 260
-112 354 -254 88 -135 174 -207 293 -247 110 -37 293 -26 415 26 28 11 34 21
48 78 23 93 56 163 103 222 l42 51 -97 12 c-203 27 -409 93 -567 181 -95 54
-271 224 -322 312 -117 200 -172 428 -172 720 0 253 56 429 194 612 l63 84
-20 59 c-14 41 -21 94 -25 184 -5 139 5 216 44 339 29 93 37 97 152 80 137
-21 325 -100 503 -210 l78 -48 73 19 c322 84 783 84 1130 0 l78 -18 51 34 c83
56 267 149 359 181 97 34 224 56 264 46 22 -5 29 -18 50 -84 14 -43 30 -108
37 -145 15 -90 7 -292 -16 -375 l-18 -66 55 -71 c158 -205 221 -438 198 -738
-41 -545 -259 -853 -714 -1014 -88 -31 -278 -73 -389 -87 l-57 -6 36 -40 c20
-22 51 -73 70 -112 59 -126 64 -177 64 -633 0 -385 1 -410 19 -439 23 -37 77
-59 130 -51 58 8 225 73 376 147 483 237 888 635 1129 1109 137 270 217 528
258 831 18 136 15 498 -5 633 -111 729 -496 1339 -1102 1745 -310 208 -676
349 -1055 408 -145 22 -539 28 -683 9z"/>
</g>
</svg>
